<svg width="14" height="14" viewBox="0 0 14 14" fill="none" xmlns="http://www.w3.org/2000/svg">
<g id="checked">
<path id="icon/check/purple (Stroke)" fill-rule="evenodd" clip-rule="evenodd" d="M11.5701 3.12731C11.7759 3.33154 11.7772 3.66395 11.573 3.86977C9.86055 5.59554 8.49474 7.32325 7.55694 8.62011C7.08838 9.26808 6.72752 9.80731 6.48451 10.1834C6.36302 10.3714 6.27105 10.5185 6.20984 10.6179C6.17924 10.6676 6.15634 10.7054 6.1413 10.7304L6.12464 10.7583L6.12077 10.7648L6.11996 10.7662C6.02773 10.9228 5.86092 11.0208 5.67919 11.0248C5.49771 11.0289 5.32702 10.9389 5.22782 10.787C5.22777 10.7869 5.2274 10.7863 5.22735 10.7862L5.22682 10.7854L5.2203 10.7757C5.21395 10.7663 5.20362 10.7512 5.18929 10.7308C5.16061 10.69 5.11596 10.6281 5.05522 10.5487C4.93371 10.3896 4.74814 10.1606 4.49778 9.88939C3.99656 9.34644 3.23892 8.6381 2.2191 7.98378C1.97506 7.8272 1.90416 7.50244 2.06073 7.2584C2.21731 7.01436 2.54207 6.94346 2.78611 7.10003C3.89566 7.81193 4.72044 8.58262 5.26929 9.17716C5.40396 9.32303 5.5222 9.45851 5.62416 9.58019C5.87535 9.1926 6.23908 8.65067 6.70609 8.00484C7.6665 6.67671 9.06713 4.90441 10.8277 3.13019C11.0319 2.92437 11.3643 2.92308 11.5701 3.12731Z" fill="white"/>
</g>
</svg>
