<svg width="" height="" viewBox="0 0 248 45" fill="none" xmlns="http://www.w3.org/2000/svg">
<g id="logo">
<path id="Vector" d="M11.5508 31.9979V20.0108H0V15.0806H11.5508V2.99683H16.8368V15.0806L28.1429 15.0806V20.0108L16.8368 20.0108V31.9979H11.5508Z" fill="#F48A71"/>
<path id="Vector_2" d="M32.0117 34.4147V0.580078H37.8361V14.6456H54.3792V0.580078H60.2036V34.4147H54.3792V19.7691H37.8361V34.4147H32.0117Z" fill="#EA3C12"/>
<path id="Vector_3" d="M75.8507 34.4147C73.9583 34.4147 72.2614 33.9797 70.7605 33.1096C69.2596 32.2074 68.0686 31.015 67.1876 29.5328C66.3391 28.0182 65.915 26.3589 65.915 24.5543C65.915 23.1365 66.2413 21.7992 66.8939 20.5425C67.5791 19.2536 68.5255 18.1741 69.7327 17.304C68.5255 16.434 67.5955 15.3867 66.9429 14.1623C66.2902 12.9055 65.964 11.6005 65.964 10.2471C65.964 8.44259 66.3881 6.81531 67.2365 5.36526C68.1175 3.9152 69.2922 2.75516 70.7605 1.88513C72.2288 1.01509 73.8604 0.580078 75.6549 0.580078H89.4572V5.7036H76.2912C75.4753 5.7036 74.725 5.91306 74.0398 6.33196C73.3546 6.71864 72.7998 7.25033 72.3757 7.92702C71.9841 8.60371 71.7883 9.37707 71.7883 10.2471C71.7883 11.0205 72.0005 11.7455 72.4246 12.4222C72.8487 13.0989 73.4035 13.6467 74.0887 14.0656C74.7739 14.4523 75.5406 14.6456 76.3891 14.6456H87.7441V19.7691H76.6828C75.7039 19.7691 74.8393 19.9947 74.0887 20.4458C73.3382 20.897 72.7508 21.4931 72.3267 22.2342C71.9352 22.9431 71.7394 23.7326 71.7394 24.6026C71.7394 25.4405 71.9352 26.2298 72.3267 26.9711C72.7508 27.6799 73.322 28.2599 74.0398 28.7111C74.7903 29.1299 75.6385 29.3395 76.5849 29.3395H89.4572V34.4147H75.8507Z" fill="#EA3C12"/>
<path id="Vector_4" d="M113.294 44.9517C111.564 44.9517 110.047 44.6296 108.742 43.985C107.437 43.3729 106.442 42.4545 105.756 41.2299C105.071 40.0377 104.729 38.6036 104.729 36.9281C104.729 35.4135 105.022 33.738 105.61 31.9012C106.229 30.0645 107.339 28.1794 108.938 26.246C110.536 24.3126 112.804 22.4598 115.741 20.6875V5.65527H108.644V0.580078H121.565V36.0581C121.565 37.766 121.239 39.2965 120.586 40.6499C119.967 42.0033 119.037 43.0505 117.797 43.7917C116.589 44.565 115.088 44.9517 113.294 44.9517ZM112.902 39.7799C113.457 39.7799 113.946 39.6349 114.371 39.3448C114.795 39.0548 115.121 38.636 115.349 38.0881C115.578 37.5726 115.692 36.9443 115.692 36.2031V26.5844C113.897 28.0023 112.609 29.3557 111.825 30.6445C111.042 31.9334 110.569 33.0775 110.406 34.0763C110.243 35.043 110.161 35.7842 110.161 36.2997C110.161 37.4276 110.439 38.2815 110.993 38.8615C111.548 39.4737 112.184 39.7799 112.902 39.7799Z" fill="#EA3C12"/>
<path id="Vector_5" d="M142.41 34.9947C139.702 34.9947 137.303 34.4468 135.215 33.3513C133.127 32.2234 131.479 30.6283 130.272 28.5661C129.097 26.5039 128.51 24.0387 128.51 21.1708V0.580078H134.334V21.6542C134.334 23.1365 134.66 24.506 135.313 25.7627C135.998 27.0194 136.945 28.0344 138.152 28.8078C139.359 29.549 140.795 29.9195 142.459 29.9195C144.123 29.9195 145.542 29.549 146.717 28.8078C147.924 28.0344 148.854 27.0194 149.507 25.7627C150.159 24.506 150.486 23.1365 150.486 21.6542V0.580078H156.359V21.1708C156.359 24.0387 155.756 26.5039 154.548 28.5661C153.341 30.6283 151.693 32.2234 149.605 33.3513C147.517 34.4468 145.118 34.9947 142.41 34.9947Z" fill="#EA3C12"/>
<path id="Vector_6" d="M172.463 34.4147C170.538 34.4147 168.841 33.9958 167.373 33.158C165.938 32.2879 164.812 31.1279 163.996 29.6778C163.213 28.2278 162.821 26.6165 162.821 24.8443V0.580078H168.695V25.5693C168.695 26.6006 169.037 27.4866 169.722 28.2278C170.44 28.969 171.354 29.3395 172.463 29.3395H181.567V34.4147H172.463Z" fill="#EA3C12"/>
<path id="Vector_7" d="M211.213 45C209.451 45 207.901 44.6778 206.563 44.0333C205.258 43.3887 204.246 42.4382 203.528 41.1815C202.843 39.957 202.501 38.491 202.501 36.783C202.501 36.3642 202.517 35.9292 202.55 35.478C202.582 35.0592 202.631 34.6241 202.696 34.1729C200.021 34.2696 197.574 33.8991 195.355 33.0612C193.136 32.2233 191.211 31.0311 189.579 29.4844C187.981 27.9377 186.741 26.1172 185.86 24.0226C184.979 21.8958 184.538 19.5918 184.538 17.1106C184.538 14.7583 184.946 12.551 185.762 10.4887C186.577 8.42643 187.752 6.60579 189.286 5.02685C190.819 3.44791 192.663 2.22342 194.816 1.35338C196.97 0.451129 199.368 0 202.011 0C204.687 0 207.101 0.435016 209.255 1.30505C211.408 2.14286 213.252 3.33512 214.786 4.88185C216.319 6.42857 217.494 8.21697 218.31 10.247C219.125 12.2449 219.533 14.4039 219.533 16.724V36.058C219.533 37.7659 219.207 39.2965 218.554 40.6498C217.934 42.0032 217.004 43.0666 215.764 43.84C214.524 44.6133 213.007 45 211.213 45ZM210.821 39.8281C211.702 39.8281 212.387 39.506 212.877 38.8614C213.399 38.2169 213.66 37.3309 213.66 36.203V26.1493C212.289 27.1805 211.213 28.1956 210.43 29.1944C209.646 30.1933 209.075 31.144 208.716 32.0462C208.39 32.9484 208.178 33.7541 208.08 34.4629C208.015 35.1718 207.982 35.7358 207.982 36.1547C207.982 36.928 208.113 37.5885 208.374 38.1364C208.635 38.6843 208.978 39.1031 209.402 39.3931C209.859 39.6831 210.332 39.8281 210.821 39.8281ZM202.011 29.1461C202.533 29.1461 203.006 29.1299 203.431 29.0977C203.855 29.0332 204.312 28.9527 204.801 28.8561C205.323 27.8894 205.976 26.9065 206.759 25.9076C207.542 24.9088 208.504 23.942 209.646 23.0075C210.789 22.0408 212.126 21.1224 213.66 20.2524V16.724C213.66 15.0806 213.366 13.55 212.779 12.1321C212.224 10.7143 211.408 9.4898 210.332 8.45865C209.287 7.39527 208.064 6.57358 206.661 5.99356C205.258 5.38132 203.708 5.07519 202.011 5.07519C200.347 5.07519 198.797 5.38132 197.361 5.99356C195.958 6.60579 194.735 7.45973 193.691 8.55532C192.646 9.61869 191.831 10.8915 191.243 12.3738C190.656 13.8238 190.362 15.4028 190.362 17.1106C190.362 18.8185 190.656 20.4135 191.243 21.8958C191.831 23.3459 192.646 24.6188 193.691 25.7143C194.735 26.7777 195.958 27.6155 197.361 28.2277C198.797 28.8399 200.347 29.1461 202.011 29.1461Z" fill="#EA3C12"/>
<path id="Vector_8" d="M234.393 34.4147C232.5 34.4147 230.804 33.9797 229.302 33.1096C227.802 32.2074 226.611 31.015 225.73 29.5328C224.881 28.0182 224.457 26.3589 224.457 24.5543C224.457 23.1365 224.783 21.7992 225.436 20.5425C226.121 19.2536 227.067 18.1741 228.275 17.304C227.067 16.434 226.138 15.3867 225.485 14.1623C224.832 12.9055 224.506 11.6005 224.506 10.2471C224.506 8.44259 224.93 6.81531 225.779 5.36526C226.66 3.9152 227.834 2.75516 229.302 1.88513C230.771 1.01509 232.402 0.580078 234.197 0.580078H248V5.7036H234.833C234.018 5.7036 233.267 5.91306 232.582 6.33196C231.897 6.71864 231.342 7.25033 230.918 7.92702C230.526 8.60371 230.33 9.37707 230.33 10.2471C230.33 11.0205 230.542 11.7455 230.967 12.4222C231.391 13.0989 231.945 13.6467 232.631 14.0656C233.316 14.4523 234.083 14.6456 234.931 14.6456H246.287V19.7691H235.225C234.246 19.7691 233.381 19.9947 232.631 20.4458C231.88 20.897 231.293 21.4931 230.869 22.2342C230.477 22.9431 230.282 23.7326 230.282 24.6026C230.282 25.4405 230.477 26.2298 230.869 26.9711C231.293 27.6799 231.864 28.2599 232.582 28.7111C233.332 29.1299 234.181 29.3395 235.127 29.3395H248V34.4147H234.393Z" fill="#EA3C12"/>
</g>
</svg>
