<svg width="107" height="64" viewBox="0 0 107 64" fill="none" xmlns="http://www.w3.org/2000/svg">
<g clip-path="url(#clip0_0_1930)">
<path fill-rule="evenodd" clip-rule="evenodd" d="M53.5 10.501C49.081 10.501 45.5 14.082 45.5 18.501C45.5 22.919 49.081 26.501 53.5 26.501C57.918 26.501 61.5 22.919 61.5 18.501C61.5 14.083 57.918 10.501 53.5 10.501ZM58.055 22.406C55.899 24.922 52.112 25.213 49.596 23.056C47.079 20.9 46.789 17.112 48.946 14.597C51.101 12.08 54.889 11.79 57.405 13.947C59.92 16.102 60.211 19.891 58.055 22.406Z" fill="white"/>
<path fill-rule="evenodd" clip-rule="evenodd" d="M53.5 14.501C51.291 14.501 49.501 16.292 49.5 18.5V18.502C49.5 18.777 49.724 19.002 50 19.002C50.276 19.002 50.5 18.777 50.5 18.502V18.5C50.501 16.844 51.843 15.501 53.5 15.501C53.776 15.501 54 15.277 54 15.001C54 14.725 53.776 14.501 53.5 14.501Z" fill="white"/>
<path fill-rule="evenodd" clip-rule="evenodd" d="M66.992 9.542L62.658 8.819L61.285 5.385C60.826 4.24 59.732 3.5 58.5 3.5H48.5C47.268 3.5 46.174 4.24 45.714 5.386L44.342 8.819L40.009 9.542C38.555 9.783 37.5 11.027 37.5 12.5V27.5C37.5 29.154 38.846 30.5 40.5 30.5H66.5C68.154 30.5 69.5 29.154 69.5 27.5V12.5C69.5 11.027 68.445 9.783 66.992 9.542ZM67.5 27.5C67.5 28.053 67.053 28.5 66.5 28.5H40.5C39.947 28.5 39.5 28.053 39.5 27.5V12.5C39.5 12.011 39.854 11.594 40.336 11.514L45.78 10.607L47.571 6.129C47.724 5.75 48.091 5.5 48.5 5.5H58.5C58.908 5.5 59.275 5.749 59.428 6.129L61.219 10.607L66.664 11.514C67.146 11.594 67.5 12.011 67.5 12.5V27.5Z" fill="white"/>
</g>
<path d="M13.0679 45.124V59.908H10.9559V45.124H13.0679ZM5.14788 46.164C5.70254 46.164 6.21454 46.2867 6.68388 46.532C7.16388 46.7773 7.57454 47.1293 7.91588 47.588C8.25721 48.036 8.52388 48.5853 8.71588 49.236C8.91854 49.876 9.01988 50.6013 9.01988 51.412C9.01988 52.2227 8.91854 52.9533 8.71588 53.604C8.52388 54.2547 8.25721 54.8093 7.91588 55.268C7.57454 55.7267 7.16388 56.0787 6.68388 56.324C6.21454 56.5693 5.70254 56.692 5.14788 56.692C4.59321 56.692 4.07588 56.5693 3.59588 56.324C3.12654 56.0787 2.72121 55.7267 2.37988 55.268C2.03854 54.8093 1.76654 54.2547 1.56388 53.604C1.37188 52.9533 1.27588 52.2227 1.27588 51.412C1.27588 50.6013 1.37188 49.876 1.56388 49.236C1.76654 48.5853 2.03854 48.036 2.37988 47.588C2.72121 47.1293 3.12654 46.7773 3.59588 46.532C4.07588 46.2867 4.59321 46.164 5.14788 46.164ZM5.14788 48.068C4.60388 48.068 4.16121 48.3507 3.81988 48.916C3.47854 49.4813 3.30788 50.3133 3.30788 51.412C3.30788 52.5107 3.47854 53.348 3.81988 53.924C4.16121 54.4893 4.60388 54.772 5.14788 54.772C5.69188 54.772 6.13454 54.4893 6.47588 53.924C6.81721 53.348 6.98788 52.5107 6.98788 51.412C6.98788 50.3133 6.81721 49.4813 6.47588 48.916C6.13454 48.3507 5.69188 48.068 5.14788 48.068ZM27.7866 45.14V59.908H25.6746V45.14H27.7866ZM23.3866 46.468V56.372H16.2986V46.468H23.3866ZM18.3786 48.132V54.708H21.3066V48.132H18.3786ZM42.5054 45.14V59.876H40.3934V45.14H42.5054ZM35.9934 49.108C35.9934 49.7053 36.068 50.308 36.2174 50.916C36.3667 51.5133 36.5907 52.0787 36.8894 52.612C37.1987 53.1453 37.5774 53.6253 38.0254 54.052C38.484 54.4787 39.0227 54.82 39.6414 55.076L38.4894 56.74C37.6254 56.3667 36.9 55.844 36.3134 55.172C35.7374 54.4893 35.284 53.6947 34.9534 52.788C34.6227 53.7587 34.1587 54.6227 33.5614 55.38C32.9747 56.1373 32.2494 56.7133 31.3854 57.108L30.1854 55.428C30.804 55.1507 31.3427 54.7827 31.8014 54.324C32.26 53.8653 32.6387 53.3587 32.9374 52.804C33.2467 52.2387 33.476 51.6413 33.6254 51.012C33.7747 50.372 33.8494 49.7373 33.8494 49.108V48.292H30.7774V46.548H39.0334V48.292H35.9934V49.108ZM56.2251 53.732H49.2651V46.116H51.3611V48.356H54.1611V46.116H56.2251V47.588H58.8491V45.14H60.9611V56.02H58.8491V52.436H56.2251V53.732ZM56.2251 49.284V50.756H58.8491V49.284H56.2251ZM54.1611 49.972H51.3611V52.052H54.1611V49.972ZM61.2811 57.94V59.62H51.2331V54.964H53.3451V57.94H61.2811ZM70.5119 49.156C69.6052 51.46 67.5305 53.0653 64.2879 53.972L63.4719 52.308C65.1572 51.86 66.4159 51.252 67.2479 50.484C68.0905 49.716 68.5812 48.8307 68.7199 47.828H64.2719V46.132H71.0239C71.0239 46.5907 70.9919 47.0387 70.9279 47.476H73.5679V45.14H75.6799V53.62H73.5679V52.212H70.3199V50.516H73.5679V49.156H70.5119ZM70.8159 53.812C71.5732 53.812 72.2559 53.8813 72.8639 54.02C73.4719 54.1587 73.9892 54.3613 74.4159 54.628C74.8532 54.884 75.1892 55.1987 75.4239 55.572C75.6585 55.9347 75.7759 56.3453 75.7759 56.804C75.7759 57.2627 75.6585 57.6787 75.4239 58.052C75.1892 58.4147 74.8532 58.724 74.4159 58.98C73.9892 59.2467 73.4719 59.4493 72.8639 59.588C72.2559 59.7267 71.5732 59.796 70.8159 59.796C70.0692 59.796 69.3865 59.7267 68.7679 59.588C68.1599 59.4493 67.6372 59.2467 67.1999 58.98C66.7625 58.724 66.4265 58.4147 66.1919 58.052C65.9572 57.6787 65.8399 57.2627 65.8399 56.804C65.8399 56.3453 65.9572 55.9347 66.1919 55.572C66.4265 55.1987 66.7625 54.884 67.1999 54.628C67.6372 54.3613 68.1599 54.1587 68.7679 54.02C69.3865 53.8813 70.0692 53.812 70.8159 53.812ZM70.8159 58.164C71.7225 58.164 72.4265 58.052 72.9279 57.828C73.4399 57.5933 73.6959 57.252 73.6959 56.804C73.6959 56.356 73.4399 56.02 72.9279 55.796C72.4265 55.5613 71.7225 55.444 70.8159 55.444C69.8772 55.444 69.1572 55.5613 68.6559 55.796C68.1652 56.02 67.9199 56.356 67.9199 56.804C67.9199 57.252 68.1652 57.5933 68.6559 57.828C69.1572 58.052 69.8772 58.164 70.8159 58.164ZM91.7586 52.644H89.6466V59.876H87.5346V45.14H89.6466V50.9H91.7586V52.644ZM83.3746 47.316H86.5746V48.996H77.9986V47.316H81.2626V45.396H83.3746V47.316ZM82.3346 49.828C82.868 49.828 83.3586 49.9133 83.8066 50.084C84.2653 50.2547 84.66 50.5 84.9906 50.82C85.3213 51.1293 85.5773 51.4973 85.7586 51.924C85.9506 52.3507 86.0466 52.82 86.0466 53.332C86.0466 53.8547 85.9506 54.3347 85.7586 54.772C85.5773 55.1987 85.3213 55.572 84.9906 55.892C84.66 56.2013 84.2653 56.4413 83.8066 56.612C83.3586 56.7827 82.868 56.868 82.3346 56.868C81.8013 56.868 81.3053 56.7827 80.8466 56.612C80.388 56.4413 79.988 56.2013 79.6466 55.892C79.316 55.572 79.0546 55.1987 78.8626 54.772C78.6813 54.3347 78.5906 53.8547 78.5906 53.332C78.5906 52.82 78.6813 52.3507 78.8626 51.924C79.0546 51.4973 79.316 51.1293 79.6466 50.82C79.988 50.5 80.388 50.2547 80.8466 50.084C81.3053 49.9133 81.8013 49.828 82.3346 49.828ZM82.3346 55.14C82.8466 55.14 83.2573 54.9853 83.5666 54.676C83.8866 54.356 84.0466 53.908 84.0466 53.332C84.0466 52.7773 83.8866 52.34 83.5666 52.02C83.2573 51.7 82.8466 51.54 82.3346 51.54C81.8226 51.54 81.4066 51.7 81.0866 52.02C80.7666 52.3293 80.6066 52.772 80.6066 53.348C80.6066 53.924 80.7666 54.3667 81.0866 54.676C81.4066 54.9853 81.8226 55.14 82.3346 55.14ZM105.069 45.124V59.86H102.941V45.124H105.069ZM100.685 46.66C100.685 47.78 100.579 48.852 100.365 49.876C100.152 50.9 99.784 51.8653 99.2614 52.772C98.7494 53.668 98.0614 54.5053 97.1974 55.284C96.3334 56.052 95.2454 56.7507 93.9334 57.38L92.8294 55.716C93.768 55.268 94.5787 54.788 95.2614 54.276C95.944 53.7533 96.5147 53.188 96.9734 52.58C97.432 51.972 97.784 51.316 98.0294 50.612C98.2854 49.908 98.4507 49.1507 98.5254 48.34H93.6134V46.66H100.685Z" fill="white"/>
<defs>
<clipPath id="clip0_0_1930">
<rect width="32" height="32" fill="white" transform="translate(37.5 0.5)"/>
</clipPath>
</defs>
</svg>
