<svg width="483" height="276" viewBox="0 0 483 276" fill="none" xmlns="http://www.w3.org/2000/svg">
<rect x="0.5" y="0.5" width="482.002" height="275" rx="4.5" fill="#F2F2F3" stroke="#CBC9CF"/>
<rect width="110.194" height="63.851" transform="translate(186.403 106.075)" fill="#F2F2F3"/>
<g clip-path="url(#clip0_322_10692)">
<path fill-rule="evenodd" clip-rule="evenodd" d="M241.499 116.076C237.08 116.076 233.499 119.657 233.499 124.076C233.499 128.494 237.08 132.076 241.499 132.076C245.917 132.076 249.499 128.494 249.499 124.076C249.499 119.658 245.917 116.076 241.499 116.076ZM246.054 127.981C243.898 130.497 240.111 130.788 237.595 128.631C235.078 126.475 234.788 122.687 236.945 120.172C239.1 117.655 242.888 117.365 245.404 119.522C247.919 121.677 248.21 125.466 246.054 127.981Z" fill="#A4A1AA"/>
<path fill-rule="evenodd" clip-rule="evenodd" d="M241.499 120.076C239.29 120.076 237.5 121.867 237.499 124.075V124.077C237.499 124.352 237.723 124.577 237.999 124.577C238.275 124.577 238.499 124.352 238.499 124.077V124.075C238.5 122.419 239.842 121.076 241.499 121.076C241.775 121.076 241.999 120.852 241.999 120.576C241.999 120.3 241.775 120.076 241.499 120.076Z" fill="#A4A1AA"/>
<path fill-rule="evenodd" clip-rule="evenodd" d="M254.991 115.117L250.657 114.394L249.284 110.96C248.825 109.815 247.731 109.075 246.499 109.075H236.499C235.267 109.075 234.173 109.815 233.713 110.961L232.341 114.394L228.008 115.117C226.554 115.358 225.499 116.602 225.499 118.075V133.075C225.499 134.729 226.845 136.075 228.499 136.075H254.499C256.153 136.075 257.499 134.729 257.499 133.075V118.075C257.499 116.602 256.444 115.358 254.991 115.117ZM255.499 133.075C255.499 133.628 255.052 134.075 254.499 134.075H228.499C227.946 134.075 227.499 133.628 227.499 133.075V118.075C227.499 117.586 227.853 117.169 228.335 117.089L233.779 116.182L235.57 111.704C235.723 111.325 236.09 111.075 236.499 111.075H246.499C246.907 111.075 247.274 111.324 247.427 111.704L249.218 116.182L254.663 117.089C255.145 117.169 255.499 117.586 255.499 118.075V133.075Z" fill="#A4A1AA"/>
</g>
<path d="M201.069 166.483H198.957V151.699H201.069V166.483ZM193.149 152.739C193.704 152.739 194.216 152.861 194.685 153.107C195.165 153.352 195.576 153.704 195.917 154.163C196.258 154.611 196.525 155.16 196.717 155.811C196.92 156.451 197.021 157.176 197.021 157.987C197.021 158.797 196.92 159.528 196.717 160.179C196.525 160.829 196.258 161.384 195.917 161.843C195.576 162.301 195.165 162.653 194.685 162.899C194.216 163.144 193.704 163.267 193.149 163.267C192.594 163.267 192.077 163.144 191.597 162.899C191.128 162.653 190.722 162.301 190.381 161.843C190.04 161.384 189.768 160.829 189.565 160.179C189.373 159.528 189.277 158.797 189.277 157.987C189.277 157.176 189.373 156.451 189.565 155.811C189.768 155.16 190.04 154.611 190.381 154.163C190.722 153.704 191.128 153.352 191.597 153.107C192.077 152.861 192.594 152.739 193.149 152.739ZM193.149 154.643C192.605 154.643 192.162 154.925 191.821 155.491C191.48 156.056 191.309 156.888 191.309 157.987C191.309 159.085 191.48 159.923 191.821 160.499C192.162 161.064 192.605 161.347 193.149 161.347C193.693 161.347 194.136 161.064 194.477 160.499C194.818 159.923 194.989 159.085 194.989 157.987C194.989 156.888 194.818 156.056 194.477 155.491C194.136 154.925 193.693 154.643 193.149 154.643ZM215.788 166.483H213.676V151.715H215.788V166.483ZM211.388 162.947H204.3V153.043H211.388V162.947ZM206.38 161.283H209.308V154.707H206.38V161.283ZM230.506 166.451H228.394V151.715H230.506V166.451ZM223.994 155.683C223.994 156.28 224.069 156.883 224.218 157.491C224.368 158.088 224.592 158.653 224.89 159.187C225.2 159.72 225.578 160.2 226.026 160.627C226.485 161.053 227.024 161.395 227.642 161.651L226.49 163.315C225.626 162.941 224.901 162.419 224.314 161.747C223.738 161.064 223.285 160.269 222.954 159.363C222.624 160.333 222.16 161.197 221.562 161.955C220.976 162.712 220.25 163.288 219.386 163.683L218.186 162.003C218.805 161.725 219.344 161.357 219.802 160.899C220.261 160.44 220.64 159.933 220.938 159.379C221.248 158.813 221.477 158.216 221.626 157.587C221.776 156.947 221.85 156.312 221.85 155.683V154.867H218.778V153.123H227.034V154.867H223.994V155.683ZM237.314 158.115C238.082 158.029 238.754 157.885 239.33 157.683C239.917 157.469 240.407 157.224 240.802 156.947C241.207 156.669 241.522 156.371 241.746 156.051C241.981 155.72 242.13 155.395 242.194 155.075H237.842V153.395H242.226V151.747H244.338V153.395H248.754V155.075H244.386C244.45 155.384 244.594 155.704 244.818 156.035C245.053 156.355 245.373 156.659 245.778 156.947C246.183 157.224 246.674 157.469 247.25 157.683C247.837 157.885 248.509 158.029 249.266 158.115L248.514 159.779C247.255 159.629 246.189 159.32 245.314 158.851C244.45 158.381 243.778 157.811 243.298 157.139C242.818 157.811 242.146 158.381 241.282 158.851C240.418 159.32 239.341 159.629 238.05 159.779L237.314 158.115ZM244.338 162.243V166.483H242.226V162.243H236.658V160.531H249.97V162.243H244.338ZM262.897 159.075V166.419H260.785V151.699H262.897V157.331H264.961V159.075H262.897ZM258.977 153.219C258.977 154.328 258.865 155.395 258.641 156.419C258.417 157.432 258.044 158.392 257.521 159.299C257.009 160.195 256.332 161.032 255.489 161.811C254.657 162.589 253.628 163.288 252.401 163.907L251.217 162.291C252.934 161.405 254.252 160.371 255.169 159.187C256.097 157.992 256.657 156.573 256.849 154.931H252.033V153.219H258.977ZM277.648 159.219V166.451H275.536V151.715H277.648V157.475H279.76V159.219H277.648ZM274.576 153.891V155.571H266V153.891H269.264V151.971H271.376V153.891H274.576ZM270.336 156.403C270.869 156.403 271.36 156.488 271.808 156.659C272.266 156.829 272.661 157.075 272.992 157.395C273.322 157.704 273.578 158.072 273.76 158.499C273.952 158.925 274.048 159.395 274.048 159.907C274.048 160.429 273.952 160.909 273.76 161.347C273.578 161.773 273.322 162.147 272.992 162.467C272.661 162.776 272.266 163.016 271.808 163.187C271.36 163.357 270.869 163.443 270.336 163.443C269.802 163.443 269.306 163.357 268.848 163.187C268.389 163.016 267.989 162.776 267.648 162.467C267.317 162.147 267.056 161.773 266.864 161.347C266.682 160.909 266.592 160.429 266.592 159.907C266.592 159.395 266.682 158.925 266.864 158.499C267.056 158.072 267.317 157.704 267.648 157.395C267.989 157.075 268.389 156.829 268.848 156.659C269.306 156.488 269.802 156.403 270.336 156.403ZM270.336 161.715C270.848 161.715 271.258 161.56 271.568 161.251C271.888 160.931 272.048 160.483 272.048 159.907C272.048 159.352 271.888 158.915 271.568 158.595C271.258 158.275 270.848 158.115 270.336 158.115C269.824 158.115 269.408 158.275 269.088 158.595C268.768 158.904 268.608 159.347 268.608 159.923C268.608 160.499 268.768 160.941 269.088 161.251C269.408 161.56 269.824 161.715 270.336 161.715ZM293.07 166.435H290.942V151.699H293.07V166.435ZM288.686 153.235C288.686 154.355 288.58 155.427 288.366 156.451C288.153 157.475 287.785 158.44 287.262 159.347C286.75 160.243 286.062 161.08 285.198 161.859C284.334 162.627 283.246 163.325 281.934 163.955L280.83 162.291C281.769 161.843 282.58 161.363 283.262 160.851C283.945 160.328 284.516 159.763 284.974 159.155C285.433 158.547 285.785 157.891 286.03 157.187C286.286 156.483 286.452 155.725 286.526 154.915H281.614V153.235H288.686Z" fill="#A4A1AA"/>
<defs>
<clipPath id="clip0_322_10692">
<rect width="32" height="32" fill="white" transform="translate(225.501 106.075)"/>
</clipPath>
</defs>
</svg>
