<svg width="16" height="17" viewBox="0 0 16 17" fill="none" xmlns="http://www.w3.org/2000/svg">
<g clip-path="url(#clip0_0_787)">
<path d="M12.2005 4.30665C11.9405 4.04665 11.5205 4.04665 11.2605 4.30665L8.00047 7.55998L4.74047 4.29998C4.48047 4.03998 4.06047 4.03998 3.80047 4.29998C3.54047 4.55998 3.54047 4.97998 3.80047 5.23998L7.06047 8.49998L3.80047 11.76C3.54047 12.02 3.54047 12.44 3.80047 12.7C4.06047 12.96 4.48047 12.96 4.74047 12.7L8.00047 9.43998L11.2605 12.7C11.5205 12.96 11.9405 12.96 12.2005 12.7C12.4605 12.44 12.4605 12.02 12.2005 11.76L8.94047 8.49998L12.2005 5.23998C12.4538 4.98665 12.4538 4.55998 12.2005 4.30665Z" fill="#EA3C12"/>
</g>
<defs>
<clipPath id="clip0_0_787">
<rect width="16" height="16" fill="white" transform="translate(0 0.5)"/>
</clipPath>
</defs>
</svg>
